<svg width="2971" height="786" viewBox="0 0 2971 786" fill="none" xmlns="http://www.w3.org/2000/svg">
<g id="Floor_3">
<rect id="hall" x="109" y="190" width="2748" height="64" fill="#AC7F5E"/>
<rect id="hall_2" x="187" y="190" width="252" height="395" fill="#AC7F5E"/>
<rect id="hall_3" x="187" y="190" width="86" height="385" fill="#AC7F5E"/>
<rect id="hall_4" x="187" y="531" width="2284" height="54" fill="#AC7F5E"/>
<rect id="hall_5" x="2415" y="190" width="60" height="399" fill="#AC7F5E"/>
<rect id="hall_6" x="1353" y="190" width="86" height="393" fill="#AC7F5E"/>
<rect id="402" x="2315" y="6" width="198" height="184" fill="#FF8D28"/>
<rect id="WC_1" x="2513" y="4" width="344" height="186" fill="#34C759"/>
<path id="413" d="M1096 583H1353V786H1096V583Z" fill="#FF8D28"/>
<path id="403" d="M2120 583H2368V786H2120V583Z" fill="#FF8D28"/>
<path id="401" d="M2368 583H2483V786H2368V583Z" fill="#FF8D28"/>
<path id="405" d="M1915 583H2120V786H1915V583Z" fill="#FF8D28"/>
<path id="407" d="M1710 583H1915V786H1710V583Z" fill="#FF8D28"/>
<rect id="415" x="797" y="583" width="299" height="203" fill="#FF8D28"/>
<path id="417" d="M550 583H797V786H550V583Z" fill="#FF8D28"/>
<rect id="419" x="273" y="583" width="277" height="203" fill="#FF8D28"/>
<path id="WC" d="M2756.09 66L2743.36 19.4545H2749.09L2758.82 57.3636H2759.27L2769.18 19.4545H2775.55L2785.45 57.3636H2785.91L2795.64 19.4545H2801.36L2788.64 66H2782.82L2772.55 28.9091H2772.18L2761.91 66H2756.09ZM2843.65 34H2838.02C2837.68 32.3788 2837.1 30.9545 2836.27 29.7273C2835.45 28.5 2834.45 27.4697 2833.27 26.6364C2832.1 25.7879 2830.8 25.1515 2829.38 24.7273C2827.96 24.303 2826.47 24.0909 2824.93 24.0909C2822.11 24.0909 2819.55 24.803 2817.27 26.2273C2814.99 27.6515 2813.18 29.75 2811.84 32.5227C2810.5 35.2955 2809.84 38.697 2809.84 42.7273C2809.84 46.7576 2810.5 50.1591 2811.84 52.9318C2813.18 55.7045 2814.99 57.803 2817.27 59.2273C2819.55 60.6515 2822.11 61.3636 2824.93 61.3636C2826.47 61.3636 2827.96 61.1515 2829.38 60.7273C2830.8 60.303 2832.1 59.6742 2833.27 58.8409C2834.45 57.9924 2835.45 56.9545 2836.27 55.7273C2837.1 54.4848 2837.68 53.0606 2838.02 51.4545H2843.65C2843.23 53.8333 2842.46 55.9621 2841.34 57.8409C2840.21 59.7197 2838.82 61.3182 2837.15 62.6364C2835.49 63.9394 2833.62 64.9318 2831.54 65.6136C2829.48 66.2955 2827.27 66.6364 2824.93 66.6364C2820.96 66.6364 2817.43 65.6667 2814.34 63.7273C2811.24 61.7879 2808.81 59.0303 2807.04 55.4545C2805.27 51.8788 2804.38 47.6364 2804.38 42.7273C2804.38 37.8182 2805.27 33.5758 2807.04 30C2808.81 26.4242 2811.24 23.6667 2814.34 21.7273C2817.43 19.7879 2820.96 18.8182 2824.93 18.8182C2827.27 18.8182 2829.48 19.1591 2831.54 19.8409C2833.62 20.5227 2835.49 21.5227 2837.15 22.8409C2838.82 24.1439 2840.21 25.7348 2841.34 27.6136C2842.46 29.4773 2843.23 31.6061 2843.65 34Z" fill="#FFCC00"/>
<rect id="stairs_right_last" x="109" y="4" width="100" height="186" fill="#FF383C"/>
<rect id="stairs_left_last" x="187" y="583" width="86" height="203" fill="#FF383C"/>
<rect id="stairs_right" x="1353" y="6" width="86" height="184" fill="#FF383C"/>
<rect id="stairs_left" x="1353" y="583" width="86" height="203" fill="#FF383C"/>
<rect id="stairs_first" x="2280" y="344" width="135" height="99" fill="#FF383C"/>
<rect id="elevator" x="1439" y="361" width="72" height="53" fill="#FF2D55"/>
<rect id="410" x="1570" y="6" width="153" height="184" fill="#FF8D28"/>
<rect id="412" x="1437" y="6" width="133" height="184" fill="#FF8D28"/>
<rect id="408" x="1723" y="6" width="198" height="184" fill="#FF8D28"/>
<rect id="406" x="1921" y="6" width="198" height="184" fill="#FF8D28"/>
<rect id="404" x="2119" y="6" width="196" height="184" fill="#FF8D28"/>
<rect id="414" x="1075" y="6" width="278" height="184" fill="#FF8D28"/>
<rect id="416" x="797" y="6" width="278" height="184" fill="#FF8D28"/>
<rect id="420" x="209" y="6" width="310" height="184" fill="#FF8D28"/>
<rect id="418" x="519" y="6" width="278" height="184" fill="#FF8D28"/>
<path id="416_2" d="M980.727 56.4545V51.8182L1001.18 19.4545H1004.55V26.6364H1002.27L986.818 51.0909V51.4545H1014.36V56.4545H980.727ZM1002.64 66V55.0455V52.8864V19.4545H1008V66H1002.64ZM1038.62 19.4545V66H1032.98V25.3636H1032.71L1021.35 32.9091V27.1818L1032.98 19.4545H1038.62ZM1067.46 66.6364C1065.55 66.6061 1063.64 66.2424 1061.73 65.5455C1059.82 64.8485 1058.08 63.6742 1056.51 62.0227C1054.93 60.3561 1053.66 58.1061 1052.71 55.2727C1051.76 52.4242 1051.28 48.8485 1051.28 44.5455C1051.28 40.4242 1051.66 36.7727 1052.44 33.5909C1053.21 30.3939 1054.33 27.7045 1055.8 25.5227C1057.27 23.3258 1059.04 21.6591 1061.12 20.5227C1063.21 19.3864 1065.57 18.8182 1068.19 18.8182C1070.79 18.8182 1073.11 19.3409 1075.14 20.3864C1077.19 21.4167 1078.85 22.8561 1080.14 24.7045C1081.43 26.553 1082.26 28.6818 1082.64 31.0909H1077.1C1076.58 29 1075.58 27.2652 1074.1 25.8864C1072.61 24.5076 1070.64 23.8182 1068.19 23.8182C1064.58 23.8182 1061.74 25.3864 1059.66 28.5227C1057.6 31.6591 1056.57 36.0606 1056.55 41.7273H1056.91C1057.76 40.4394 1058.77 39.3409 1059.94 38.4318C1061.12 37.5076 1062.42 36.7955 1063.85 36.2955C1065.27 35.7955 1066.78 35.5455 1068.37 35.5455C1071.04 35.5455 1073.48 36.2121 1075.69 37.5455C1077.9 38.8636 1079.67 40.6894 1081.01 43.0227C1082.34 45.3409 1083.01 48 1083.01 51C1083.01 53.8788 1082.36 56.5152 1081.07 58.9091C1079.79 61.2879 1077.98 63.1818 1075.64 64.5909C1073.32 65.9848 1070.6 66.6667 1067.46 66.6364ZM1067.46 61.6364C1069.37 61.6364 1071.08 61.1591 1072.6 60.2045C1074.13 59.25 1075.33 57.9697 1076.21 56.3636C1077.1 54.7576 1077.55 52.9697 1077.55 51C1077.55 49.0758 1077.12 47.3258 1076.26 45.75C1075.41 44.1591 1074.23 42.8939 1072.73 41.9545C1071.25 41.0152 1069.55 40.5455 1067.64 40.5455C1066.2 40.5455 1064.86 40.8333 1063.62 41.4091C1062.38 41.9697 1061.29 42.7424 1060.35 43.7273C1059.42 44.7121 1058.7 45.8409 1058.16 47.1136C1057.63 48.3712 1057.37 49.697 1057.37 51.0909C1057.37 52.9394 1057.8 54.6667 1058.66 56.2727C1059.54 57.8788 1060.74 59.1742 1062.26 60.1591C1063.79 61.1439 1065.52 61.6364 1067.46 61.6364Z" fill="white"/>
<path id="420_2" d="M326.727 61.4545V56.8182L347.182 24.4545H350.545V31.6364H348.273L332.818 56.0909V56.4545H360.364V61.4545H326.727ZM348.636 71V60.0455V57.8864V24.4545H354V71H348.636ZM368.881 71V66.9091L384.244 50.0909C386.047 48.1212 387.532 46.4091 388.699 44.9545C389.866 43.4848 390.729 42.1061 391.29 40.8182C391.866 39.5152 392.153 38.1515 392.153 36.7273C392.153 35.0909 391.759 33.6742 390.972 32.4773C390.199 31.2803 389.138 30.3561 387.79 29.7045C386.441 29.053 384.926 28.7273 383.244 28.7273C381.456 28.7273 379.896 29.0985 378.562 29.8409C377.244 30.5682 376.222 31.5909 375.494 32.9091C374.782 34.2273 374.426 35.7727 374.426 37.5455H369.062C369.062 34.8182 369.691 32.4242 370.949 30.3636C372.206 28.303 373.919 26.697 376.085 25.5455C378.267 24.3939 380.714 23.8182 383.426 23.8182C386.153 23.8182 388.57 24.3939 390.676 25.5455C392.782 26.697 394.434 28.25 395.631 30.2045C396.828 32.1591 397.426 34.3333 397.426 36.7273C397.426 38.4394 397.116 40.1136 396.494 41.75C395.888 43.3712 394.828 45.1818 393.312 47.1818C391.812 49.1667 389.729 51.5909 387.062 54.4545L376.608 65.6364V66H398.244V71H368.881ZM422.812 71.6364C419.388 71.6364 416.472 70.7045 414.062 68.8409C411.653 66.9621 409.813 64.2424 408.54 60.6818C407.267 57.1061 406.631 52.7879 406.631 47.7273C406.631 42.697 407.267 38.4015 408.54 34.8409C409.828 31.2652 411.676 28.5379 414.085 26.6591C416.509 24.7651 419.419 23.8182 422.812 23.8182C426.206 23.8182 429.108 24.7651 431.517 26.6591C433.941 28.5379 435.79 31.2652 437.062 34.8409C438.35 38.4015 438.994 42.697 438.994 47.7273C438.994 52.7879 438.358 57.1061 437.085 60.6818C435.812 64.2424 433.972 66.9621 431.562 68.8409C429.153 70.7045 426.237 71.6364 422.812 71.6364ZM422.812 66.6364C426.206 66.6364 428.843 65 430.722 61.7273C432.6 58.4545 433.54 53.7879 433.54 47.7273C433.54 43.697 433.108 40.2652 432.244 37.4318C431.396 34.5985 430.169 32.4394 428.562 30.9545C426.972 29.4697 425.055 28.7273 422.812 28.7273C419.449 28.7273 416.82 30.3864 414.926 33.7045C413.032 37.0076 412.085 41.6818 412.085 47.7273C412.085 51.7576 412.509 55.1818 413.358 58C414.206 60.8182 415.426 62.9621 417.017 64.4318C418.623 65.9015 420.555 66.6364 422.812 66.6364Z" fill="white"/>
<path id="418_2" d="M581.727 56.4545V51.8182L602.182 19.4545H605.545V26.6364H603.273L587.818 51.0909V51.4545H615.364V56.4545H581.727ZM603.636 66V55.0455V52.8864V19.4545H609V66H603.636ZM639.619 19.4545V66H633.983V25.3636H633.71L622.347 32.9091V27.1818L633.983 19.4545H639.619ZM667.915 66.6364C664.794 66.6364 662.036 66.0833 659.642 64.9773C657.263 63.8561 655.407 62.3182 654.074 60.3636C652.741 58.3939 652.081 56.1515 652.097 53.6364C652.081 51.6667 652.468 49.8485 653.256 48.1818C654.044 46.5 655.119 45.0985 656.483 43.9773C657.862 42.8409 659.4 42.1212 661.097 41.8182V41.5455C658.869 40.9697 657.097 39.7197 655.778 37.7955C654.46 35.8561 653.809 33.6515 653.824 31.1818C653.809 28.8182 654.407 26.7045 655.619 24.8409C656.831 22.9773 658.498 21.5076 660.619 20.4318C662.756 19.3561 665.188 18.8182 667.915 18.8182C670.612 18.8182 673.021 19.3561 675.142 20.4318C677.263 21.5076 678.93 22.9773 680.142 24.8409C681.369 26.7045 681.991 28.8182 682.006 31.1818C681.991 33.6515 681.316 35.8561 679.983 37.7955C678.665 39.7197 676.915 40.9697 674.733 41.5455V41.8182C676.415 42.1212 677.93 42.8409 679.278 43.9773C680.627 45.0985 681.703 46.5 682.506 48.1818C683.309 49.8485 683.718 51.6667 683.733 53.6364C683.718 56.1515 683.036 58.3939 681.688 60.3636C680.354 62.3182 678.498 63.8561 676.119 64.9773C673.756 66.0833 671.021 66.6364 667.915 66.6364ZM667.915 61.6364C670.021 61.6364 671.839 61.2955 673.369 60.6136C674.9 59.9318 676.081 58.9697 676.915 57.7273C677.748 56.4848 678.172 55.0303 678.188 53.3636C678.172 51.6061 677.718 50.053 676.824 48.7045C675.93 47.3561 674.71 46.2955 673.165 45.5227C671.634 44.75 669.884 44.3636 667.915 44.3636C665.93 44.3636 664.157 44.75 662.597 45.5227C661.051 46.2955 659.831 47.3561 658.938 48.7045C658.059 50.053 657.627 51.6061 657.642 53.3636C657.627 55.0303 658.028 56.4848 658.847 57.7273C659.68 58.9697 660.869 59.9318 662.415 60.6136C663.96 61.2955 665.794 61.6364 667.915 61.6364ZM667.915 39.5455C669.581 39.5455 671.059 39.2121 672.347 38.5455C673.65 37.8788 674.672 36.947 675.415 35.75C676.157 34.553 676.536 33.1515 676.551 31.5455C676.536 29.9697 676.165 28.5985 675.438 27.4318C674.71 26.25 673.703 25.3409 672.415 24.7045C671.127 24.053 669.627 23.7273 667.915 23.7273C666.172 23.7273 664.65 24.053 663.347 24.7045C662.044 25.3409 661.036 26.25 660.324 27.4318C659.612 28.5985 659.263 29.9697 659.278 31.5455C659.263 33.1515 659.619 34.553 660.347 35.75C661.089 36.947 662.112 37.8788 663.415 38.5455C664.718 39.2121 666.218 39.5455 667.915 39.5455Z" fill="white"/>
<path id="404_2" d="M2201.73 52.4545V47.8182L2222.18 15.4545H2225.55V22.6364H2223.27L2207.82 47.0909V47.4545H2235.36V52.4545H2201.73ZM2223.64 62V51.0455V48.8864V15.4545H2229V62H2223.64ZM2259.06 62.6364C2255.64 62.6364 2252.72 61.7045 2250.31 59.8409C2247.9 57.9621 2246.06 55.2424 2244.79 51.6818C2243.52 48.1061 2242.88 43.7879 2242.88 38.7273C2242.88 33.697 2243.52 29.4015 2244.79 25.8409C2246.08 22.2652 2247.93 19.5379 2250.34 17.6591C2252.76 15.7651 2255.67 14.8182 2259.06 14.8182C2262.46 14.8182 2265.36 15.7651 2267.77 17.6591C2270.19 19.5379 2272.04 22.2652 2273.31 25.8409C2274.6 29.4015 2275.24 33.697 2275.24 38.7273C2275.24 43.7879 2274.61 48.1061 2273.34 51.6818C2272.06 55.2424 2270.22 57.9621 2267.81 59.8409C2265.4 61.7045 2262.49 62.6364 2259.06 62.6364ZM2259.06 57.6364C2262.46 57.6364 2265.09 56 2266.97 52.7273C2268.85 49.4545 2269.79 44.7879 2269.79 38.7273C2269.79 34.697 2269.36 31.2652 2268.49 28.4318C2267.65 25.5985 2266.42 23.4394 2264.81 21.9545C2263.22 20.4697 2261.3 19.7273 2259.06 19.7273C2255.7 19.7273 2253.07 21.3864 2251.18 24.7045C2249.28 28.0076 2248.34 32.6818 2248.34 38.7273C2248.34 42.7576 2248.76 46.1818 2249.61 49C2250.46 51.8182 2251.68 53.9621 2253.27 55.4318C2254.87 56.9015 2256.8 57.6364 2259.06 57.6364ZM2282.79 52.4545V47.8182L2303.24 15.4545H2306.61V22.6364H2304.34L2288.88 47.0909V47.4545H2316.43V52.4545H2282.79ZM2304.7 62V51.0455V48.8864V15.4545H2310.06V62H2304.7Z" fill="white"/>
<path id="402_2" d="M2371.73 56.4545V51.8182L2392.18 19.4545H2395.55V26.6364H2393.27L2377.82 51.0909V51.4545H2405.36V56.4545H2371.73ZM2393.64 66V55.0455V52.8864V19.4545H2399V66H2393.64ZM2429.06 66.6364C2425.64 66.6364 2422.72 65.7045 2420.31 63.8409C2417.9 61.9621 2416.06 59.2424 2414.79 55.6818C2413.52 52.1061 2412.88 47.7879 2412.88 42.7273C2412.88 37.697 2413.52 33.4015 2414.79 29.8409C2416.08 26.2652 2417.93 23.5379 2420.34 21.6591C2422.76 19.7651 2425.67 18.8182 2429.06 18.8182C2432.46 18.8182 2435.36 19.7651 2437.77 21.6591C2440.19 23.5379 2442.04 26.2652 2443.31 29.8409C2444.6 33.4015 2445.24 37.697 2445.24 42.7273C2445.24 47.7879 2444.61 52.1061 2443.34 55.6818C2442.06 59.2424 2440.22 61.9621 2437.81 63.8409C2435.4 65.7045 2432.49 66.6364 2429.06 66.6364ZM2429.06 61.6364C2432.46 61.6364 2435.09 60 2436.97 56.7273C2438.85 53.4545 2439.79 48.7879 2439.79 42.7273C2439.79 38.697 2439.36 35.2652 2438.49 32.4318C2437.65 29.5985 2436.42 27.4394 2434.81 25.9545C2433.22 24.4697 2431.3 23.7273 2429.06 23.7273C2425.7 23.7273 2423.07 25.3864 2421.18 28.7045C2419.28 32.0076 2418.34 36.6818 2418.34 42.7273C2418.34 46.7576 2418.76 50.1818 2419.61 53C2420.46 55.8182 2421.68 57.9621 2423.27 59.4318C2424.87 60.9015 2426.8 61.6364 2429.06 61.6364ZM2453.88 66V61.9091L2469.24 45.0909C2471.05 43.1212 2472.53 41.4091 2473.7 39.9545C2474.87 38.4848 2475.73 37.1061 2476.29 35.8182C2476.87 34.5152 2477.15 33.1515 2477.15 31.7273C2477.15 30.0909 2476.76 28.6742 2475.97 27.4773C2475.2 26.2803 2474.14 25.3561 2472.79 24.7045C2471.44 24.053 2469.93 23.7273 2468.24 23.7273C2466.46 23.7273 2464.9 24.0985 2463.56 24.8409C2462.24 25.5682 2461.22 26.5909 2460.49 27.9091C2459.78 29.2273 2459.43 30.7727 2459.43 32.5455H2454.06C2454.06 29.8182 2454.69 27.4242 2455.95 25.3636C2457.21 23.303 2458.92 21.697 2461.09 20.5455C2463.27 19.3939 2465.71 18.8182 2468.43 18.8182C2471.15 18.8182 2473.57 19.3939 2475.68 20.5455C2477.78 21.697 2479.43 23.25 2480.63 25.2045C2481.83 27.1591 2482.43 29.3333 2482.43 31.7273C2482.43 33.4394 2482.12 35.1136 2481.49 36.75C2480.89 38.3712 2479.83 40.1818 2478.31 42.1818C2476.81 44.1667 2474.73 46.5909 2472.06 49.4545L2461.61 60.6364V61H2483.24V66H2453.88Z" fill="white"/>
<path id="408_2" d="M1802.73 58.4545V53.8182L1823.18 21.4545H1826.55V28.6364H1824.27L1808.82 53.0909V53.4545H1836.36V58.4545H1802.73ZM1824.64 68V57.0455V54.8864V21.4545H1830V68H1824.64ZM1860.06 68.6364C1856.64 68.6364 1853.72 67.7045 1851.31 65.8409C1848.9 63.9621 1847.06 61.2424 1845.79 57.6818C1844.52 54.1061 1843.88 49.7879 1843.88 44.7273C1843.88 39.697 1844.52 35.4015 1845.79 31.8409C1847.08 28.2652 1848.93 25.5379 1851.34 23.6591C1853.76 21.7651 1856.67 20.8182 1860.06 20.8182C1863.46 20.8182 1866.36 21.7651 1868.77 23.6591C1871.19 25.5379 1873.04 28.2652 1874.31 31.8409C1875.6 35.4015 1876.24 39.697 1876.24 44.7273C1876.24 49.7879 1875.61 54.1061 1874.34 57.6818C1873.06 61.2424 1871.22 63.9621 1868.81 65.8409C1866.4 67.7045 1863.49 68.6364 1860.06 68.6364ZM1860.06 63.6364C1863.46 63.6364 1866.09 62 1867.97 58.7273C1869.85 55.4545 1870.79 50.7879 1870.79 44.7273C1870.79 40.697 1870.36 37.2652 1869.49 34.4318C1868.65 31.5985 1867.42 29.4394 1865.81 27.9545C1864.22 26.4697 1862.3 25.7273 1860.06 25.7273C1856.7 25.7273 1854.07 27.3864 1852.18 30.7045C1850.28 34.0076 1849.34 38.6818 1849.34 44.7273C1849.34 48.7576 1849.76 52.1818 1850.61 55C1851.46 57.8182 1852.68 59.9621 1854.27 61.4318C1855.87 62.9015 1857.8 63.6364 1860.06 63.6364ZM1899.79 68.6364C1896.67 68.6364 1893.91 68.0833 1891.52 66.9773C1889.14 65.8561 1887.28 64.3182 1885.95 62.3636C1884.62 60.3939 1883.96 58.1515 1883.97 55.6364C1883.96 53.6667 1884.34 51.8485 1885.13 50.1818C1885.92 48.5 1886.99 47.0985 1888.36 45.9773C1889.74 44.8409 1891.27 44.1212 1892.97 43.8182V43.5455C1890.74 42.9697 1888.97 41.7197 1887.65 39.7955C1886.34 37.8561 1885.68 35.6515 1885.7 33.1818C1885.68 30.8182 1886.28 28.7045 1887.49 26.8409C1888.71 24.9773 1890.37 23.5076 1892.49 22.4318C1894.63 21.3561 1897.06 20.8182 1899.79 20.8182C1902.49 20.8182 1904.9 21.3561 1907.02 22.4318C1909.14 23.5076 1910.8 24.9773 1912.02 26.8409C1913.24 28.7045 1913.87 30.8182 1913.88 33.1818C1913.87 35.6515 1913.19 37.8561 1911.86 39.7955C1910.54 41.7197 1908.79 42.9697 1906.61 43.5455V43.8182C1908.29 44.1212 1909.8 44.8409 1911.15 45.9773C1912.5 47.0985 1913.58 48.5 1914.38 50.1818C1915.18 51.8485 1915.59 53.6667 1915.61 55.6364C1915.59 58.1515 1914.91 60.3939 1913.56 62.3636C1912.23 64.3182 1910.37 65.8561 1907.99 66.9773C1905.63 68.0833 1902.9 68.6364 1899.79 68.6364ZM1899.79 63.6364C1901.9 63.6364 1903.71 63.2955 1905.24 62.6136C1906.77 61.9318 1907.96 60.9697 1908.79 59.7273C1909.62 58.4848 1910.05 57.0303 1910.06 55.3636C1910.05 53.6061 1909.59 52.053 1908.7 50.7045C1907.8 49.3561 1906.59 48.2955 1905.04 47.5227C1903.51 46.75 1901.76 46.3636 1899.79 46.3636C1897.8 46.3636 1896.03 46.75 1894.47 47.5227C1892.93 48.2955 1891.71 49.3561 1890.81 50.7045C1889.93 52.053 1889.5 53.6061 1889.52 55.3636C1889.5 57.0303 1889.9 58.4848 1890.72 59.7273C1891.55 60.9697 1892.74 61.9318 1894.29 62.6136C1895.84 63.2955 1897.67 63.6364 1899.79 63.6364ZM1899.79 41.5455C1901.46 41.5455 1902.93 41.2121 1904.22 40.5455C1905.52 39.8788 1906.55 38.947 1907.29 37.75C1908.03 36.553 1908.41 35.1515 1908.43 33.5455C1908.41 31.9697 1908.04 30.5985 1907.31 29.4318C1906.59 28.25 1905.58 27.3409 1904.29 26.7045C1903 26.053 1901.5 25.7273 1899.79 25.7273C1898.05 25.7273 1896.52 26.053 1895.22 26.7045C1893.92 27.3409 1892.91 28.25 1892.2 29.4318C1891.49 30.5985 1891.14 31.9697 1891.15 33.5455C1891.14 35.1515 1891.49 36.553 1892.22 37.75C1892.96 38.947 1893.99 39.8788 1895.29 40.5455C1896.59 41.2121 1898.09 41.5455 1899.79 41.5455Z" fill="white"/>
<path id="410_2" d="M1583.73 54.4545V49.8182L1604.18 17.4545H1607.55V24.6364H1605.27L1589.82 49.0909V49.4545H1617.36V54.4545H1583.73ZM1605.64 64V53.0455V50.8864V17.4545H1611V64H1605.64ZM1641.62 17.4545V64H1635.98V23.3636H1635.71L1624.35 30.9091V25.1818L1635.98 17.4545H1641.62ZM1670.19 64.6364C1666.76 64.6364 1663.85 63.7045 1661.44 61.8409C1659.03 59.9621 1657.19 57.2424 1655.91 53.6818C1654.64 50.1061 1654.01 45.7879 1654.01 40.7273C1654.01 35.697 1654.64 31.4015 1655.91 27.8409C1657.2 24.2652 1659.05 21.5379 1661.46 19.6591C1663.88 17.7651 1666.79 16.8182 1670.19 16.8182C1673.58 16.8182 1676.48 17.7651 1678.89 19.6591C1681.32 21.5379 1683.16 24.2652 1684.44 27.8409C1685.73 31.4015 1686.37 35.697 1686.37 40.7273C1686.37 45.7879 1685.73 50.1061 1684.46 53.6818C1683.19 57.2424 1681.35 59.9621 1678.94 61.8409C1676.53 63.7045 1673.61 64.6364 1670.19 64.6364ZM1670.19 59.6364C1673.58 59.6364 1676.22 58 1678.1 54.7273C1679.98 51.4545 1680.91 46.7879 1680.91 40.7273C1680.91 36.697 1680.48 33.2652 1679.62 30.4318C1678.77 27.5985 1677.54 25.4394 1675.94 23.9545C1674.35 22.4697 1672.43 21.7273 1670.19 21.7273C1666.82 21.7273 1664.2 23.3864 1662.3 26.7045C1660.41 30.0076 1659.46 34.6818 1659.46 40.7273C1659.46 44.7576 1659.88 48.1818 1660.73 51C1661.58 53.8182 1662.8 55.9621 1664.39 57.4318C1666 58.9015 1667.93 59.6364 1670.19 59.6364Z" fill="white"/>
<path id="406_2" d="M1998.73 56.4545V51.8182L2019.18 19.4545H2022.55V26.6364H2020.27L2004.82 51.0909V51.4545H2032.36V56.4545H1998.73ZM2020.64 66V55.0455V52.8864V19.4545H2026V66H2020.64ZM2056.06 66.6364C2052.64 66.6364 2049.72 65.7045 2047.31 63.8409C2044.9 61.9621 2043.06 59.2424 2041.79 55.6818C2040.52 52.1061 2039.88 47.7879 2039.88 42.7273C2039.88 37.697 2040.52 33.4015 2041.79 29.8409C2043.08 26.2652 2044.93 23.5379 2047.34 21.6591C2049.76 19.7651 2052.67 18.8182 2056.06 18.8182C2059.46 18.8182 2062.36 19.7651 2064.77 21.6591C2067.19 23.5379 2069.04 26.2652 2070.31 29.8409C2071.6 33.4015 2072.24 37.697 2072.24 42.7273C2072.24 47.7879 2071.61 52.1061 2070.34 55.6818C2069.06 59.2424 2067.22 61.9621 2064.81 63.8409C2062.4 65.7045 2059.49 66.6364 2056.06 66.6364ZM2056.06 61.6364C2059.46 61.6364 2062.09 60 2063.97 56.7273C2065.85 53.4545 2066.79 48.7879 2066.79 42.7273C2066.79 38.697 2066.36 35.2652 2065.49 32.4318C2064.65 29.5985 2063.42 27.4394 2061.81 25.9545C2060.22 24.4697 2058.3 23.7273 2056.06 23.7273C2052.7 23.7273 2050.07 25.3864 2048.18 28.7045C2046.28 32.0076 2045.34 36.6818 2045.34 42.7273C2045.34 46.7576 2045.76 50.1818 2046.61 53C2047.46 55.8182 2048.68 57.9621 2050.27 59.4318C2051.87 60.9015 2053.8 61.6364 2056.06 61.6364ZM2096.34 66.6364C2094.43 66.6061 2092.52 66.2424 2090.61 65.5455C2088.7 64.8485 2086.96 63.6742 2085.38 62.0227C2083.8 60.3561 2082.54 58.1061 2081.59 55.2727C2080.63 52.4242 2080.15 48.8485 2080.15 44.5455C2080.15 40.4242 2080.54 36.7727 2081.31 33.5909C2082.09 30.3939 2083.21 27.7045 2084.68 25.5227C2086.15 23.3258 2087.92 21.6591 2089.99 20.5227C2092.09 19.3864 2094.44 18.8182 2097.06 18.8182C2099.67 18.8182 2101.99 19.3409 2104.02 20.3864C2106.06 21.4167 2107.73 22.8561 2109.02 24.7045C2110.3 26.553 2111.14 28.6818 2111.52 31.0909H2105.97C2105.46 29 2104.46 27.2652 2102.97 25.8864C2101.49 24.5076 2099.52 23.8182 2097.06 23.8182C2093.46 23.8182 2090.62 25.3864 2088.54 28.5227C2086.48 31.6591 2085.44 36.0606 2085.43 41.7273H2085.79C2086.64 40.4394 2087.65 39.3409 2088.81 38.4318C2089.99 37.5076 2091.3 36.7955 2092.72 36.2955C2094.15 35.7955 2095.65 35.5455 2097.24 35.5455C2099.91 35.5455 2102.35 36.2121 2104.56 37.5455C2106.77 38.8636 2108.55 40.6894 2109.88 43.0227C2111.21 45.3409 2111.88 48 2111.88 51C2111.88 53.8788 2111.24 56.5152 2109.95 58.9091C2108.66 61.2879 2106.85 63.1818 2104.52 64.5909C2102.2 65.9848 2099.47 66.6667 2096.34 66.6364ZM2096.34 61.6364C2098.24 61.6364 2099.96 61.1591 2101.47 60.2045C2103 59.25 2104.21 57.9697 2105.09 56.3636C2105.98 54.7576 2106.43 52.9697 2106.43 51C2106.43 49.0758 2105.99 47.3258 2105.13 45.75C2104.28 44.1591 2103.11 42.8939 2101.61 41.9545C2100.12 41.0152 2098.43 40.5455 2096.52 40.5455C2095.08 40.5455 2093.74 40.8333 2092.49 41.4091C2091.25 41.9697 2090.16 42.7424 2089.22 43.7273C2088.3 44.7121 2087.57 45.8409 2087.04 47.1136C2086.51 48.3712 2086.24 49.697 2086.24 51.0909C2086.24 52.9394 2086.68 54.6667 2087.54 56.2727C2088.42 57.8788 2089.62 59.1742 2091.13 60.1591C2092.66 61.1439 2094.4 61.6364 2096.34 61.6364Z" fill="white"/>
<path id="412_2" d="M1450.73 54.4545V49.8182L1471.18 17.4545H1474.55V24.6364H1472.27L1456.82 49.0909V49.4545H1484.36V54.4545H1450.73ZM1472.64 64V53.0455V50.8864V17.4545H1478V64H1472.64ZM1508.62 17.4545V64H1502.98V23.3636H1502.71L1491.35 30.9091V25.1818L1502.98 17.4545H1508.62ZM1522.01 64V59.9091L1537.37 43.0909C1539.17 41.1212 1540.66 39.4091 1541.82 37.9545C1542.99 36.4848 1543.85 35.1061 1544.41 33.8182C1544.99 32.5152 1545.28 31.1515 1545.28 29.7273C1545.28 28.0909 1544.88 26.6742 1544.1 25.4773C1543.32 24.2803 1542.26 23.3561 1540.91 22.7045C1539.57 22.053 1538.05 21.7273 1536.37 21.7273C1534.58 21.7273 1533.02 22.0985 1531.69 22.8409C1530.37 23.5682 1529.35 24.5909 1528.62 25.9091C1527.91 27.2273 1527.55 28.7727 1527.55 30.5455H1522.19C1522.19 27.8182 1522.82 25.4242 1524.07 23.3636C1525.33 21.303 1527.04 19.697 1529.21 18.5455C1531.39 17.3939 1533.84 16.8182 1536.55 16.8182C1539.28 16.8182 1541.7 17.3939 1543.8 18.5455C1545.91 19.697 1547.56 21.25 1548.76 23.2045C1549.95 25.1591 1550.55 27.3333 1550.55 29.7273C1550.55 31.4394 1550.24 33.1136 1549.62 34.75C1549.01 36.3712 1547.95 38.1818 1546.44 40.1818C1544.94 42.1667 1542.85 44.5909 1540.19 47.4545L1529.73 58.6364V59H1551.37V64H1522.01Z" fill="white"/>
<path id="414_2" d="M1231.73 54.4545V49.8182L1252.18 17.4545H1255.55V24.6364H1253.27L1237.82 49.0909V49.4545H1265.36V54.4545H1231.73ZM1253.64 64V53.0455V50.8864V17.4545H1259V64H1253.64ZM1289.62 17.4545V64H1283.98V23.3636H1283.71L1272.35 30.9091V25.1818L1283.98 17.4545H1289.62ZM1301.91 54.4545V49.8182L1322.37 17.4545H1325.73V24.6364H1323.46L1308.01 49.0909V49.4545H1335.55V54.4545H1301.91ZM1323.82 64V53.0455V50.8864V17.4545H1329.19V64H1323.82Z" fill="white"/>
<rect id="WC_2" y="613" width="190" height="173" fill="#34C759"/>
<path id="WC_3" d="M90.0909 673L77.3636 626.455H83.0909L92.8182 664.364H93.2727L103.182 626.455H109.545L119.455 664.364H119.909L129.636 626.455H135.364L122.636 673H116.818L106.545 635.909H106.182L95.9091 673H90.0909ZM177.653 641H172.017C171.684 639.379 171.1 637.955 170.267 636.727C169.449 635.5 168.449 634.47 167.267 633.636C166.1 632.788 164.805 632.152 163.381 631.727C161.956 631.303 160.472 631.091 158.926 631.091C156.108 631.091 153.555 631.803 151.267 633.227C148.994 634.652 147.184 636.75 145.835 639.523C144.502 642.295 143.835 645.697 143.835 649.727C143.835 653.758 144.502 657.159 145.835 659.932C147.184 662.705 148.994 664.803 151.267 666.227C153.555 667.652 156.108 668.364 158.926 668.364C160.472 668.364 161.956 668.152 163.381 667.727C164.805 667.303 166.1 666.674 167.267 665.841C168.449 664.992 169.449 663.955 170.267 662.727C171.1 661.485 171.684 660.061 172.017 658.455H177.653C177.229 660.833 176.456 662.962 175.335 664.841C174.214 666.72 172.82 668.318 171.153 669.636C169.487 670.939 167.616 671.932 165.54 672.614C163.479 673.295 161.275 673.636 158.926 673.636C154.956 673.636 151.426 672.667 148.335 670.727C145.244 668.788 142.813 666.03 141.04 662.455C139.267 658.879 138.381 654.636 138.381 649.727C138.381 644.818 139.267 640.576 141.04 637C142.813 633.424 145.244 630.667 148.335 628.727C151.426 626.788 154.956 625.818 158.926 625.818C161.275 625.818 163.479 626.159 165.54 626.841C167.616 627.523 169.487 628.523 171.153 629.841C172.82 631.144 174.214 632.735 175.335 634.614C176.456 636.477 177.229 638.606 177.653 641Z" fill="#FFCC00"/>
<path id="401_2" d="M2363.73 635.455V630.818L2384.18 598.455H2387.55V605.636H2385.27L2369.82 630.091V630.455H2397.36V635.455H2363.73ZM2385.64 645V634.045V631.886V598.455H2391V645H2385.64ZM2421.06 645.636C2417.64 645.636 2414.72 644.705 2412.31 642.841C2409.9 640.962 2408.06 638.242 2406.79 634.682C2405.52 631.106 2404.88 626.788 2404.88 621.727C2404.88 616.697 2405.52 612.402 2406.79 608.841C2408.08 605.265 2409.93 602.538 2412.34 600.659C2414.76 598.765 2417.67 597.818 2421.06 597.818C2424.46 597.818 2427.36 598.765 2429.77 600.659C2432.19 602.538 2434.04 605.265 2435.31 608.841C2436.6 612.402 2437.24 616.697 2437.24 621.727C2437.24 626.788 2436.61 631.106 2435.34 634.682C2434.06 638.242 2432.22 640.962 2429.81 642.841C2427.4 644.705 2424.49 645.636 2421.06 645.636ZM2421.06 640.636C2424.46 640.636 2427.09 639 2428.97 635.727C2430.85 632.455 2431.79 627.788 2431.79 621.727C2431.79 617.697 2431.36 614.265 2430.49 611.432C2429.65 608.598 2428.42 606.439 2426.81 604.955C2425.22 603.47 2423.3 602.727 2421.06 602.727C2417.7 602.727 2415.07 604.386 2413.18 607.705C2411.28 611.008 2410.34 615.682 2410.34 621.727C2410.34 625.758 2410.76 629.182 2411.61 632C2412.46 634.818 2413.68 636.962 2415.27 638.432C2416.87 639.902 2418.8 640.636 2421.06 640.636ZM2462.24 598.455V645H2456.61V604.364H2456.34L2444.97 611.909V606.182L2456.61 598.455H2462.24Z" fill="white"/>
<path id="403_2" d="M2157.73 629.455V624.818L2178.18 592.455H2181.55V599.636H2179.27L2163.82 624.091V624.455H2191.36V629.455H2157.73ZM2179.64 639V628.045V625.886V592.455H2185V639H2179.64ZM2215.06 639.636C2211.64 639.636 2208.72 638.705 2206.31 636.841C2203.9 634.962 2202.06 632.242 2200.79 628.682C2199.52 625.106 2198.88 620.788 2198.88 615.727C2198.88 610.697 2199.52 606.402 2200.79 602.841C2202.08 599.265 2203.93 596.538 2206.34 594.659C2208.76 592.765 2211.67 591.818 2215.06 591.818C2218.46 591.818 2221.36 592.765 2223.77 594.659C2226.19 596.538 2228.04 599.265 2229.31 602.841C2230.6 606.402 2231.24 610.697 2231.24 615.727C2231.24 620.788 2230.61 625.106 2229.34 628.682C2228.06 632.242 2226.22 634.962 2223.81 636.841C2221.4 638.705 2218.49 639.636 2215.06 639.636ZM2215.06 634.636C2218.46 634.636 2221.09 633 2222.97 629.727C2224.85 626.455 2225.79 621.788 2225.79 615.727C2225.79 611.697 2225.36 608.265 2224.49 605.432C2223.65 602.598 2222.42 600.439 2220.81 598.955C2219.22 597.47 2217.3 596.727 2215.06 596.727C2211.7 596.727 2209.07 598.386 2207.18 601.705C2205.28 605.008 2204.34 609.682 2204.34 615.727C2204.34 619.758 2204.76 623.182 2205.61 626C2206.46 628.818 2207.68 630.962 2209.27 632.432C2210.87 633.902 2212.8 634.636 2215.06 634.636ZM2255.61 639.636C2252.61 639.636 2249.93 639.121 2247.59 638.091C2245.25 637.061 2243.4 635.629 2242.02 633.795C2240.65 631.947 2239.91 629.803 2239.79 627.364H2245.52C2245.64 628.864 2246.15 630.159 2247.06 631.25C2247.97 632.326 2249.16 633.159 2250.63 633.75C2252.1 634.341 2253.73 634.636 2255.52 634.636C2257.52 634.636 2259.29 634.288 2260.84 633.591C2262.38 632.894 2263.59 631.924 2264.47 630.682C2265.35 629.439 2265.79 628 2265.79 626.364C2265.79 624.652 2265.37 623.144 2264.52 621.841C2263.67 620.523 2262.43 619.492 2260.79 618.75C2259.15 618.008 2257.15 617.636 2254.79 617.636H2251.06V612.636H2254.79C2256.64 612.636 2258.26 612.303 2259.65 611.636C2261.06 610.97 2262.16 610.03 2262.95 608.818C2263.75 607.606 2264.15 606.182 2264.15 604.545C2264.15 602.97 2263.8 601.598 2263.11 600.432C2262.41 599.265 2261.43 598.356 2260.15 597.705C2258.9 597.053 2257.41 596.727 2255.7 596.727C2254.09 596.727 2252.58 597.023 2251.15 597.614C2249.74 598.189 2248.59 599.03 2247.7 600.136C2246.8 601.227 2246.32 602.545 2246.24 604.091H2240.79C2240.88 601.652 2241.62 599.515 2242.99 597.682C2244.37 595.833 2246.18 594.394 2248.4 593.364C2250.65 592.333 2253.11 591.818 2255.79 591.818C2258.67 591.818 2261.14 592.402 2263.2 593.568C2265.26 594.72 2266.84 596.242 2267.95 598.136C2269.05 600.03 2269.61 602.076 2269.61 604.273C2269.61 606.894 2268.92 609.129 2267.54 610.977C2266.18 612.826 2264.32 614.106 2261.97 614.818V615.182C2264.91 615.667 2267.21 616.917 2268.86 618.932C2270.51 620.932 2271.34 623.409 2271.34 626.364C2271.34 628.894 2270.65 631.167 2269.27 633.182C2267.9 635.182 2266.04 636.758 2263.68 637.909C2261.31 639.061 2258.62 639.636 2255.61 639.636Z" fill="white"/>
<path id="405_2" d="M2002.73 629.455V624.818L2023.18 592.455H2026.55V599.636H2024.27L2008.82 624.091V624.455H2036.36V629.455H2002.73ZM2024.64 639V628.045V625.886V592.455H2030V639H2024.64ZM2060.06 639.636C2056.64 639.636 2053.72 638.705 2051.31 636.841C2048.9 634.962 2047.06 632.242 2045.79 628.682C2044.52 625.106 2043.88 620.788 2043.88 615.727C2043.88 610.697 2044.52 606.402 2045.79 602.841C2047.08 599.265 2048.93 596.538 2051.34 594.659C2053.76 592.765 2056.67 591.818 2060.06 591.818C2063.46 591.818 2066.36 592.765 2068.77 594.659C2071.19 596.538 2073.04 599.265 2074.31 602.841C2075.6 606.402 2076.24 610.697 2076.24 615.727C2076.24 620.788 2075.61 625.106 2074.34 628.682C2073.06 632.242 2071.22 634.962 2068.81 636.841C2066.4 638.705 2063.49 639.636 2060.06 639.636ZM2060.06 634.636C2063.46 634.636 2066.09 633 2067.97 629.727C2069.85 626.455 2070.79 621.788 2070.79 615.727C2070.79 611.697 2070.36 608.265 2069.49 605.432C2068.65 602.598 2067.42 600.439 2065.81 598.955C2064.22 597.47 2062.3 596.727 2060.06 596.727C2056.7 596.727 2054.07 598.386 2052.18 601.705C2050.28 605.008 2049.34 609.682 2049.34 615.727C2049.34 619.758 2049.76 623.182 2050.61 626C2051.46 628.818 2052.68 630.962 2054.27 632.432C2055.87 633.902 2057.8 634.636 2060.06 634.636ZM2099.43 639.636C2096.76 639.636 2094.36 639.106 2092.22 638.045C2090.09 636.985 2088.37 635.53 2087.09 633.682C2085.8 631.833 2085.09 629.727 2084.97 627.364H2090.43C2090.64 629.47 2091.59 631.212 2093.29 632.591C2095 633.955 2097.05 634.636 2099.43 634.636C2101.34 634.636 2103.03 634.189 2104.52 633.295C2106.02 632.402 2107.19 631.174 2108.04 629.614C2108.9 628.038 2109.34 626.258 2109.34 624.273C2109.34 622.242 2108.89 620.432 2107.99 618.841C2107.12 617.235 2105.9 615.97 2104.36 615.045C2102.81 614.121 2101.05 613.652 2099.06 613.636C2097.64 613.621 2096.18 613.841 2094.68 614.295C2093.18 614.735 2091.94 615.303 2090.97 616L2085.7 615.364L2088.52 592.455H2112.7V597.455H2093.24L2091.61 611.182H2091.88C2092.84 610.424 2094.03 609.795 2095.47 609.295C2096.91 608.795 2098.41 608.545 2099.97 608.545C2102.82 608.545 2105.36 609.227 2107.59 610.591C2109.83 611.939 2111.59 613.788 2112.86 616.136C2114.15 618.485 2114.79 621.167 2114.79 624.182C2114.79 627.152 2114.12 629.803 2112.79 632.136C2111.47 634.455 2109.65 636.288 2107.34 637.636C2105.02 638.97 2102.38 639.636 2099.43 639.636Z" fill="white"/>
<path id="407_2" d="M1802.73 629.455V624.818L1823.18 592.455H1826.55V599.636H1824.27L1808.82 624.091V624.455H1836.36V629.455H1802.73ZM1824.64 639V628.045V625.886V592.455H1830V639H1824.64ZM1860.06 639.636C1856.64 639.636 1853.72 638.705 1851.31 636.841C1848.9 634.962 1847.06 632.242 1845.79 628.682C1844.52 625.106 1843.88 620.788 1843.88 615.727C1843.88 610.697 1844.52 606.402 1845.79 602.841C1847.08 599.265 1848.93 596.538 1851.34 594.659C1853.76 592.765 1856.67 591.818 1860.06 591.818C1863.46 591.818 1866.36 592.765 1868.77 594.659C1871.19 596.538 1873.04 599.265 1874.31 602.841C1875.6 606.402 1876.24 610.697 1876.24 615.727C1876.24 620.788 1875.61 625.106 1874.34 628.682C1873.06 632.242 1871.22 634.962 1868.81 636.841C1866.4 638.705 1863.49 639.636 1860.06 639.636ZM1860.06 634.636C1863.46 634.636 1866.09 633 1867.97 629.727C1869.85 626.455 1870.79 621.788 1870.79 615.727C1870.79 611.697 1870.36 608.265 1869.49 605.432C1868.65 602.598 1867.42 600.439 1865.81 598.955C1864.22 597.47 1862.3 596.727 1860.06 596.727C1856.7 596.727 1854.07 598.386 1852.18 601.705C1850.28 605.008 1849.34 609.682 1849.34 615.727C1849.34 619.758 1849.76 623.182 1850.61 626C1851.46 628.818 1852.68 630.962 1854.27 632.432C1855.87 633.902 1857.8 634.636 1860.06 634.636ZM1885.09 639L1905.9 597.818V597.455H1881.9V592.455H1911.72V597.727L1890.99 639H1885.09Z" fill="white"/>
<path id="409" d="M1567 583H1710V786H1567V583Z" fill="#FF8D28"/>
<path id="411" d="M1424 583H1567V786H1424V583Z" fill="#FF8D28"/>
<path id="409_2" d="M1559.73 629.455V624.818L1580.18 592.455H1583.55V599.636H1581.27L1565.82 624.091V624.455H1593.36V629.455H1559.73ZM1581.64 639V628.045V625.886V592.455H1587V639H1581.64ZM1617.06 639.636C1613.64 639.636 1610.72 638.705 1608.31 636.841C1605.9 634.962 1604.06 632.242 1602.79 628.682C1601.52 625.106 1600.88 620.788 1600.88 615.727C1600.88 610.697 1601.52 606.402 1602.79 602.841C1604.08 599.265 1605.93 596.538 1608.34 594.659C1610.76 592.765 1613.67 591.818 1617.06 591.818C1620.46 591.818 1623.36 592.765 1625.77 594.659C1628.19 596.538 1630.04 599.265 1631.31 602.841C1632.6 606.402 1633.24 610.697 1633.24 615.727C1633.24 620.788 1632.61 625.106 1631.34 628.682C1630.06 632.242 1628.22 634.962 1625.81 636.841C1623.4 638.705 1620.49 639.636 1617.06 639.636ZM1617.06 634.636C1620.46 634.636 1623.09 633 1624.97 629.727C1626.85 626.455 1627.79 621.788 1627.79 615.727C1627.79 611.697 1627.36 608.265 1626.49 605.432C1625.65 602.598 1624.42 600.439 1622.81 598.955C1621.22 597.47 1619.3 596.727 1617.06 596.727C1613.7 596.727 1611.07 598.386 1609.18 601.705C1607.28 605.008 1606.34 609.682 1606.34 615.727C1606.34 619.758 1606.76 623.182 1607.61 626C1608.46 628.818 1609.68 630.962 1611.27 632.432C1612.87 633.902 1614.8 634.636 1617.06 634.636ZM1656.7 591.818C1658.61 591.833 1660.52 592.197 1662.43 592.909C1664.34 593.621 1666.08 594.803 1667.65 596.455C1669.23 598.091 1670.49 600.326 1671.45 603.159C1672.4 605.992 1672.88 609.545 1672.88 613.818C1672.88 617.955 1672.49 621.629 1671.7 624.841C1670.93 628.038 1669.8 630.735 1668.34 632.932C1666.88 635.129 1665.11 636.795 1663.02 637.932C1660.94 639.068 1658.59 639.636 1655.97 639.636C1653.37 639.636 1651.04 639.121 1648.99 638.091C1646.96 637.045 1645.3 635.598 1643.99 633.75C1642.71 631.886 1641.88 629.727 1641.52 627.273H1647.06C1647.56 629.409 1648.55 631.174 1650.04 632.568C1651.54 633.947 1653.52 634.636 1655.97 634.636C1659.56 634.636 1662.4 633.068 1664.47 629.932C1666.56 626.795 1667.61 622.364 1667.61 616.636H1667.24C1666.4 617.909 1665.39 619.008 1664.22 619.932C1663.05 620.856 1661.76 621.568 1660.34 622.068C1658.91 622.568 1657.4 622.818 1655.79 622.818C1653.12 622.818 1650.68 622.159 1648.45 620.841C1646.24 619.508 1644.46 617.682 1643.13 615.364C1641.81 613.03 1641.15 610.364 1641.15 607.364C1641.15 604.515 1641.79 601.909 1643.06 599.545C1644.35 597.167 1646.15 595.273 1648.47 593.864C1650.8 592.455 1653.55 591.773 1656.7 591.818ZM1656.7 596.818C1654.79 596.818 1653.07 597.295 1651.54 598.25C1650.02 599.189 1648.82 600.462 1647.93 602.068C1647.05 603.659 1646.61 605.424 1646.61 607.364C1646.61 609.303 1647.03 611.068 1647.88 612.659C1648.74 614.235 1649.92 615.492 1651.4 616.432C1652.9 617.356 1654.61 617.818 1656.52 617.818C1657.96 617.818 1659.3 617.538 1660.54 616.977C1661.78 616.402 1662.87 615.621 1663.79 614.636C1664.73 613.636 1665.46 612.508 1665.99 611.25C1666.52 609.977 1666.79 608.652 1666.79 607.273C1666.79 605.455 1666.35 603.75 1665.47 602.159C1664.61 600.568 1663.41 599.28 1661.88 598.295C1660.37 597.311 1658.64 596.818 1656.7 596.818Z" fill="white"/>
<path id="411_2" d="M1427.73 629.455V624.818L1448.18 592.455H1451.55V599.636H1449.27L1433.82 624.091V624.455H1461.36V629.455H1427.73ZM1449.64 639V628.045V625.886V592.455H1455V639H1449.64ZM1485.62 592.455V639H1479.98V598.364H1479.71L1468.35 605.909V600.182L1479.98 592.455H1485.62ZM1515.37 592.455V639H1509.73V598.364H1509.46L1498.1 605.909V600.182L1509.73 592.455H1515.37Z" fill="white"/>
<path id="415_2" d="M842.727 646.455V641.818L863.182 609.455H866.545V616.636H864.273L848.818 641.091V641.455H876.364V646.455H842.727ZM864.636 656V645.045V642.886V609.455H870V656H864.636ZM900.619 609.455V656H894.983V615.364H894.71L883.347 622.909V617.182L894.983 609.455H900.619ZM928.551 656.636C925.884 656.636 923.483 656.106 921.347 655.045C919.21 653.985 917.498 652.53 916.21 650.682C914.922 648.833 914.218 646.727 914.097 644.364H919.551C919.763 646.47 920.718 648.212 922.415 649.591C924.127 650.955 926.172 651.636 928.551 651.636C930.46 651.636 932.157 651.189 933.642 650.295C935.142 649.402 936.316 648.174 937.165 646.614C938.028 645.038 938.46 643.258 938.46 641.273C938.46 639.242 938.013 637.432 937.119 635.841C936.241 634.235 935.028 632.97 933.483 632.045C931.938 631.121 930.172 630.652 928.188 630.636C926.763 630.621 925.301 630.841 923.801 631.295C922.301 631.735 921.066 632.303 920.097 633L914.824 632.364L917.642 609.455H941.824V614.455H922.369L920.733 628.182H921.006C921.96 627.424 923.157 626.795 924.597 626.295C926.036 625.795 927.536 625.545 929.097 625.545C931.945 625.545 934.483 626.227 936.71 627.591C938.953 628.939 940.71 630.788 941.983 633.136C943.271 635.485 943.915 638.167 943.915 641.182C943.915 644.152 943.248 646.803 941.915 649.136C940.597 651.455 938.778 653.288 936.46 654.636C934.142 655.97 931.506 656.636 928.551 656.636Z" fill="white"/>
<path id="417_2" d="M648.727 649.455V644.818L669.182 612.455H672.545V619.636H670.273L654.818 644.091V644.455H682.364V649.455H648.727ZM670.636 659V648.045V645.886V612.455H676V659H670.636ZM706.619 612.455V659H700.983V618.364H700.71L689.347 625.909V620.182L700.983 612.455H706.619ZM721.46 659L742.278 617.818V617.455H718.278V612.455H748.097V617.727L727.369 659H721.46Z" fill="white"/>
<path id="419_2" d="M442.727 652.455V647.818L463.182 615.455H466.545V622.636H464.273L448.818 647.091V647.455H476.364V652.455H442.727ZM464.636 662V651.045V648.886V615.455H470V662H464.636ZM500.619 615.455V662H494.983V621.364H494.71L483.347 628.909V623.182L494.983 615.455H500.619ZM528.824 614.818C530.733 614.833 532.642 615.197 534.551 615.909C536.46 616.621 538.203 617.803 539.778 619.455C541.354 621.091 542.619 623.326 543.574 626.159C544.528 628.992 545.006 632.545 545.006 636.818C545.006 640.955 544.612 644.629 543.824 647.841C543.051 651.038 541.93 653.735 540.46 655.932C539.006 658.129 537.233 659.795 535.142 660.932C533.066 662.068 530.718 662.636 528.097 662.636C525.491 662.636 523.165 662.121 521.119 661.091C519.089 660.045 517.422 658.598 516.119 656.75C514.831 654.886 514.006 652.727 513.642 650.273H519.188C519.688 652.409 520.68 654.174 522.165 655.568C523.665 656.947 525.642 657.636 528.097 657.636C531.688 657.636 534.521 656.068 536.597 652.932C538.688 649.795 539.733 645.364 539.733 639.636H539.369C538.521 640.909 537.513 642.008 536.347 642.932C535.18 643.856 533.884 644.568 532.46 645.068C531.036 645.568 529.521 645.818 527.915 645.818C525.248 645.818 522.801 645.159 520.574 643.841C518.362 642.508 516.589 640.682 515.256 638.364C513.938 636.03 513.278 633.364 513.278 630.364C513.278 627.515 513.915 624.909 515.188 622.545C516.475 620.167 518.278 618.273 520.597 616.864C522.93 615.455 525.672 614.773 528.824 614.818ZM528.824 619.818C526.915 619.818 525.195 620.295 523.665 621.25C522.15 622.189 520.945 623.462 520.051 625.068C519.172 626.659 518.733 628.424 518.733 630.364C518.733 632.303 519.157 634.068 520.006 635.659C520.869 637.235 522.044 638.492 523.528 639.432C525.028 640.356 526.733 640.818 528.642 640.818C530.081 640.818 531.422 640.538 532.665 639.977C533.907 639.402 534.991 638.621 535.915 637.636C536.854 636.636 537.589 635.508 538.119 634.25C538.65 632.977 538.915 631.652 538.915 630.273C538.915 628.455 538.475 626.75 537.597 625.159C536.733 623.568 535.536 622.28 534.006 621.295C532.491 620.311 530.763 619.818 528.824 619.818Z" fill="white"/>
</g>
</svg>
